<svg id="visual" viewBox="0 0 1600 200" width="1600" height="200" xmlns="http://www.w3.org/2000/svg" xmlns:xlink="http://www.w3.org/1999/xlink" version="1.1"><path d="M0 139L33.3 129.8C66.7 120.7 133.3 102.3 200 88.3C266.7 74.3 333.3 64.7 400 73.7C466.7 82.7 533.3 110.3 600 121.2C666.7 132 733.3 126 800 112.8C866.7 99.7 933.3 79.3 1000 68.3C1066.7 57.3 1133.3 55.7 1200 70.3C1266.7 85 1333.3 116 1400 118.3C1466.7 120.7 1533.3 94.3 1566.7 81.2L1600 68L1600 201L1566.7 201C1533.3 201 1466.7 201 1400 201C1333.3 201 1266.7 201 1200 201C1133.3 201 1066.7 201 1000 201C933.3 201 866.7 201 800 201C733.3 201 666.7 201 600 201C533.3 201 466.7 201 400 201C333.3 201 266.7 201 200 201C133.3 201 66.7 201 33.3 201L0 201Z" fill="#F5F5FF" stroke-linecap="round" stroke-linejoin="miter"></path></svg>